<svg width="40" height="35" viewBox="0 0 40 35" fill="none" xmlns="http://www.w3.org/2000/svg">
<ellipse cx="20" cy="17.5" rx="20" ry="17.5" fill="#D9D9D9"/>
<path d="M29 16C29 23 20 29 20 29C20 29 11 23 11 16C11 13.6131 11.9482 11.3239 13.636 9.63604C15.3239 7.94821 17.6131 7 20 7C22.3869 7 24.6761 7.94821 26.364 9.63604C28.0518 11.3239 29 13.6131 29 16Z" stroke="black" stroke-width="2" stroke-linecap="round" stroke-linejoin="round"/>
<path d="M20 19C21.6569 19 23 17.6569 23 16C23 14.3431 21.6569 13 20 13C18.3431 13 17 14.3431 17 16C17 17.6569 18.3431 19 20 19Z" stroke="black" stroke-width="2" stroke-linecap="round" stroke-linejoin="round"/>
</svg>
